<?xml version="1.0" encoding="UTF-8"?>
<svg id="Layer_2" data-name="Layer 2" xmlns="http://www.w3.org/2000/svg" viewBox="0 0 140 160">
  <defs>
    <style>
      .cls-1 {
        fill: #fff;
      }

      .cls-2 {
        fill: #c71784;
      }

      .cls-3 {
        fill: #1e1e1e;
      }

      .cls-4 {
        fill: #231f20;
      }
    </style>
  </defs>
  <path class="cls-2" d="M101.63,4.31H38.37c-17.09,0-31,13.91-31,31v44.37l1.16-.18c1.1-.18,2.09-.26,3-.26,10.48,0,19,8.52,19,19,0,9.06-6.44,16.89-15.32,18.64l-1.66,.33,1.09,1.3c5.91,7.04,14.57,11.07,23.74,11.07h63.26c17.09,0,31-13.91,31-31V35.31c0-17.09-13.91-31-31-31Z"/>
  <path class="cls-1" d="M109.32,109.21H58.02c-5.69,0-10.32-4.63-10.32-10.32v-1.29c0-5.69,4.63-10.32,10.32-10.32h51.29c5.69,0,10.32,4.63,10.32,10.32v1.29c0,5.69-4.63,10.32-10.32,10.32Zm-51.29-20c-4.62,0-8.39,3.76-8.39,8.39v1.29c0,4.62,3.76,8.39,8.39,8.39h51.29c4.62,0,8.39-3.76,8.39-8.39v-1.29c0-4.62-3.76-8.39-8.39-8.39H58.02Z"/>
  <path class="cls-1" d="M82.42,74.13l-14.51-19.89c-1.63-2.23-1.14-5.36,1.09-6.99,2.23-1.63,5.36-1.14,6.99,1.09l8.31,11.4,31.22-25.23c2.15-1.73,5.3-1.4,7.03,.75,1.74,2.15,1.4,5.3-.75,7.03l-39.39,31.83Z"/>
  <path class="cls-1" d="M51.07,47.63H18.24c-1.66,0-3-1.34-3-3s1.34-3,3-3H51.07c1.66,0,3,1.34,3,3s-1.34,3-3,3Z"/>
  <path class="cls-1" d="M51.07,64.59H18.24c-1.66,0-3-1.34-3-3s1.34-3,3-3H51.07c1.66,0,3,1.34,3,3s-1.34,3-3,3Z"/>
  <g>
    <path class="cls-3" d="M33.78,139.05l3.29,9.28,3.27-9.28h3.46v12.8h-2.65v-3.5l.26-6.04-3.45,9.54h-1.81l-3.45-9.53,.26,6.03v3.5h-2.64v-12.8h3.45Z"/>
    <path class="cls-3" d="M49.49,148.25l1.76-5.92h2.72l-3.82,10.99-.21,.5c-.57,1.24-1.51,1.86-2.81,1.86-.37,0-.74-.06-1.12-.17v-1.92h.39c.48,0,.84-.06,1.08-.21s.42-.39,.56-.73l.3-.78-3.33-9.54h2.73l1.77,5.92Z"/>
    <path class="cls-3" d="M57.78,147.34v4.51h-2.64v-12.8h4.99c.96,0,1.81,.18,2.54,.53s1.29,.85,1.68,1.5,.59,1.38,.59,2.21c0,1.25-.43,2.24-1.29,2.97s-2.05,1.09-3.56,1.09h-2.31Zm0-2.14h2.36c.7,0,1.23-.16,1.6-.49s.55-.8,.55-1.41-.18-1.13-.55-1.52-.88-.59-1.53-.6h-2.42v4.02Z"/>
    <path class="cls-3" d="M69.26,151.85h-2.55v-13.5h2.55v13.5Z"/>
    <path class="cls-3" d="M76.87,151.85c-.12-.23-.2-.51-.25-.85-.62,.69-1.42,1.03-2.4,1.03-.93,0-1.7-.27-2.32-.81s-.92-1.22-.92-2.04c0-1.01,.37-1.78,1.12-2.32s1.83-.81,3.24-.82h1.17v-.54c0-.44-.11-.79-.34-1.05s-.58-.4-1.07-.4c-.43,0-.76,.1-1.01,.31s-.37,.49-.37,.84h-2.54c0-.55,.17-1.06,.51-1.53,.34-.47,.82-.84,1.44-1.1s1.32-.4,2.09-.4c1.17,0,2.1,.29,2.79,.88s1.03,1.42,1.03,2.48v4.12c0,.9,.13,1.58,.38,2.05v.15h-2.57Zm-2.1-1.77c.38,0,.72-.08,1.04-.25s.55-.39,.7-.67v-1.63h-.95c-1.27,0-1.95,.44-2.03,1.32v.15c0,.32,.1,.58,.33,.78s.53,.31,.91,.31Z"/>
    <path class="cls-3" d="M83.34,142.34l.08,1.1c.68-.85,1.59-1.27,2.73-1.27,1.01,0,1.76,.3,2.25,.89s.74,1.48,.76,2.65v6.14h-2.54v-6.08c0-.54-.12-.93-.35-1.17s-.62-.36-1.17-.36c-.71,0-1.25,.3-1.61,.91v6.71h-2.54v-9.51h2.39Z"/>
    <path class="cls-3" d="M93.43,142.34l.08,1.1c.68-.85,1.59-1.27,2.73-1.27,1.01,0,1.76,.3,2.25,.89s.74,1.48,.76,2.65v6.14h-2.54v-6.08c0-.54-.12-.93-.35-1.17s-.62-.36-1.17-.36c-.71,0-1.25,.3-1.61,.91v6.71h-2.54v-9.51h2.39Z"/>
    <path class="cls-3" d="M105.55,152.02c-1.39,0-2.53-.43-3.41-1.28s-1.31-2-1.31-3.42v-.25c0-.96,.18-1.81,.55-2.56s.89-1.33,1.57-1.74,1.45-.61,2.32-.61c1.3,0,2.33,.41,3.07,1.23s1.12,1.98,1.12,3.49v1.04h-6.06c.08,.62,.33,1.12,.74,1.49s.94,.56,1.57,.56c.98,0,1.74-.35,2.29-1.06l1.25,1.4c-.38,.54-.9,.96-1.55,1.26s-1.37,.45-2.16,.45Zm-.29-7.81c-.5,0-.91,.17-1.23,.51-.31,.34-.51,.83-.6,1.47h3.53v-.2c-.01-.57-.16-1-.46-1.31-.29-.31-.71-.46-1.25-.46Z"/>
    <path class="cls-3" d="M116.24,144.72c-.35-.05-.65-.07-.91-.07-.96,0-1.59,.33-1.89,.98v6.22h-2.54v-9.51h2.4l.07,1.13c.51-.87,1.22-1.31,2.12-1.31,.28,0,.54,.04,.79,.11l-.04,2.44Z"/>
  </g>
  <g>
    <path class="cls-4" d="M119.86,138.16h-1.34v2.3h-.75v-5.69h1.88c.64,0,1.13,.15,1.48,.44,.35,.29,.52,.72,.52,1.27,0,.35-.1,.66-.29,.93-.19,.26-.46,.46-.8,.59l1.34,2.41v.05h-.8l-1.23-2.3Zm-1.34-.61h1.15c.37,0,.67-.1,.89-.29,.22-.19,.33-.45,.33-.77,0-.35-.1-.62-.31-.81-.21-.19-.51-.28-.91-.29h-1.15v2.16Z"/>
    <path class="cls-3" d="M119.65,142.07c-2.34,0-4.25-1.91-4.25-4.25s1.91-4.25,4.25-4.25,4.25,1.91,4.25,4.25-1.91,4.25-4.25,4.25Zm0-8c-2.07,0-3.75,1.68-3.75,3.75s1.68,3.75,3.75,3.75,3.75-1.68,3.75-3.75-1.68-3.75-3.75-3.75Z"/>
  </g>
</svg>